inDegrees=yes
name=ik_lifting_orientations
DataType=double
version=3
OpenSimVersion=4.5-2024-01-10-34fd6af
endheader
time	pelvis_tilt	pelvis_list	pelvis_rotation	pelvis_tx	pelvis_ty	pelvis_tz	hip_flexion_r	hip_adduction_r	hip_rotation_r	knee_angle_r	knee_angle_r_beta	ankle_angle_r	subtalar_angle_r	mtp_angle_r	hip_flexion_l	hip_adduction_l	hip_rotation_l	knee_angle_l	knee_angle_l_beta	ankle_angle_l	subtalar_angle_l	mtp_angle_l	lumbar_extension	lumbar_bending	lumbar_rotation	arm_flex_r	arm_add_r	arm_rot_r	elbow_flex_r	pro_sup_r	wrist_flex_r	wrist_dev_r	arm_flex_l	arm_add_l	arm_rot_l	elbow_flex_l	pro_sup_l	wrist_flex_l	wrist_dev_l
2.95	3.197363062666777	0.9579842577359615	-16.36548202944666	0	0.9399999998679526	0	44.99799224797996	-10.01540274800094	0	59.99904163842305	1.047180824631655	-5.002356563272865	0	0	44.99799224797996	-10.01540274800094	0	59.99904163842305	1.047180824631655	-5.002356563272865	0	0	-3.615521717177031	14.00778180617989	-82.3676222501569	56.08143711123567	-8.721287124518936	18.2598316117137	89.09628671027228	0.8197045955468658	0	0	0	-13.00768570906163	0	89.19640689022775	0.8197045955468658	0	0
2.96	3.128447167748192	0.9556897908605687	-16.68264620828136	0	0.9399999998679526	0	44.99799759499752	-10.01530229881663	0	59.99904452838778	1.047180875071055	-5.002338044045472	0	0	44.99799759499752	-10.01530229881663	0	59.99904452838778	1.047180875071055	-5.002338044045472	0	0	-3.558402392696125	13.48488596681722	-82.12408671352047	56.32848948954786	-7.837241105613677	18.15412702412328	89.31288042383888	0.8180377561525071	0	0	0	-13.01089524619333	0	89.19804060689683	0.8180377561525071	0	0
2.97	3.212683671288342	0.9565516425956732	-16.47785965648348	0	0.9399999998679526	0	44.99800447391378	-10.01517433068537	0	59.99904825270126	1.047180940072588	-5.002314529508061	0	0	44.99800447391378	-10.01517433068537	0	59.99904825270126	1.047180940072588	-5.002314529508061	0	0	-3.578059909067887	13.17743468957891	-82.28802274677454	56.93464945214423	-6.903476757111826	18.30376627590141	92.02616292637309	0.8158898641062577	0	0	0	-13.01503565451504	0	89.20014581696367	0.8158898641062577	0	0
2.98	3.149892104626177	0.9661951912981416	-16.85500958715617	0	0.9399999998679526	0	44.99801086458916	-10.01505454248169	0	59.99905169432829	1.047181000140311	-5.0022924752283	0	0	44.99801086458916	-10.01505454248169	0	59.99905169432829	1.047181000140311	-5.0022924752283	0	0	-3.578176552352097	13.13616148556488	-82.13336614900494	57.97727050263916	-5.764525622145984	18.60571841005081	93.19013850573151	0.8138977356532363	0	0	0	-13.0188710604233	0	89.2020983586839	0.8138977356532363	0	0
2.99	2.948080152674966	0.9539654990987131	-17.85075026023394	0	0.9399999998679526	0	44.99802198072359	-10.01485375368144	0	59.99905776175962	1.047181106036965	-5.002255922664249	0	0	44.99802198072359	-10.01485375368144	0	59.99905776175962	1.047181106036965	-5.002255922664249	0	0	-3.554489589294237	12.71229823005762	-81.05643095365514	58.61993060411376	-5.061800902346767	18.71674354317252	92.70577034706572	0.8104081392097474	0	0	0	-13.02562313262634	0	89.20551861148752	0.8104081392097474	0	0
3	2.796821306269869	0.9323166860830975	-18.37116514803285	0	0.9399999998679526	0	44.9980224702617	-10.01484088283899	0	59.99905797174817	1.047181109701956	-5.002253371545885	0	0	44.9980224702617	-10.01484088283899	0	59.99905797174817	1.047181109701956	-5.002253371545885	0	0	-3.460873630088887	12.30968084305686	-80.54262948430556	59.43238782408484	-4.723129630867138	18.85907680894472	92.62644401134068	0.8102686698917767	0	0	0	-13.02587305788129	0	89.20565530925269	0.8102686698917767	0	0
3.01	2.650308476156147	0.9072809969311955	-18.90740352851224	0	0.9399999998679526	0	44.99802311616729	-10.01482392760402	0	59.99905824902026	1.047181114541267	-5.002250012453338	0	0	44.99802311616729	-10.01482392760402	0	59.99905824902026	1.047181114541267	-5.002250012453338	0	0	-3.387521388554016	12.36235377561624	-80.53806145511703	60.52232247976062	-3.923050688357895	19.14153054292388	92.7099092635835	0.8100845860394337	0	0	0	-13.0262030241804	0	89.20583573496684	0.8100845860394337	0	0
3.02	2.523172457780498	0.898802745644823	-19.22288072421286	0	0.9399999998679526	0	44.998023799391	-10.01480599137569	0	59.99905854211546	1.047181119656744	-5.002246459662258	0	0	44.998023799391	-10.01480599137569	0	59.99905854211546	1.047181119656744	-5.002246459662258	0	0	-3.215159200046941	12.0301060731192	-80.6666865183925	61.12690872738425	-3.080608120516791	19.43372914700818	92.17763603035768	0.8098899024126837	0	0	0	-13.02655192635505	0	89.20602654981515	0.8098899024126837	0	0
3.03	2.457928631420538	0.9252301508190297	-19.36034216353702	0	0.9399999998679526	0	44.99802429588244	-10.01479296583829	0	59.99905875510355	1.047181123374087	-5.002243880348497	0	0	44.99802429588244	-10.01479296583829	0	59.99905875510355	1.047181123374087	-5.002243880348497	0	0	-3.054067699508372	11.63794307839324	-80.41276279925083	62.23421069686835	-2.634821649908101	19.60365851399137	91.67904919377835	0.8097484189678231	0	0	0	-13.02680549368298	0	89.20616522168268	0.8097484189678231	0	0
3.04	2.338387083743631	0.8967196067979221	-19.91155377724533	0	0.9399999998679526	0	44.99803316855908	-10.01463026482208	0	59.999063543131	1.047181206940931	-5.002214156629014	0	0	44.99803316855908	-10.01463026482208	0	59.999063543131	1.047181206940931	-5.002214156629014	0	0	-3.032345266315928	11.64511062960407	-79.60151581771038	63.6440783828728	-2.281929608936855	19.62758107914091	91.20044523811109	0.8069728817161728	0	0	0	-13.03216169402277	0	89.20888560468808	0.8069728817161728	0	0
3.05	2.27092622105386	0.8989747453628122	-20.17659558346706	0	0.9399999998679526	0	44.99803369227209	-10.01461663668696	0	59.99906376799016	1.047181210865463	-5.002211465376011	0	0	44.99803369227209	-10.01461663668696	0	59.99906376799016	1.047181210865463	-5.002211465376011	0	0	-2.86982043788875	11.2358548952623	-79.7444428938941	64.36590120054458	-0.976335811430795	19.79748568635904	90.57203599771593	0.8068234269772975	0	0	0	-13.03242981681538	0	89.20903208944588	0.8068234269772975	0	0
3.06	2.27374873909491	0.9128966845704626	-20.34433863087454	0	0.9399999998679526	0	44.99803431753885	-10.01460036041326	0	59.99906403624542	1.047181215547401	-5.002208251489933	0	0	44.99803431753885	-10.01460036041326	0	59.99906403624542	1.047181215547401	-5.002208251489933	0	0	-2.758839754702385	10.83465810514877	-80.00652559658052	65.1358466187416	0.1983732298763267	19.59460886347593	90.02443623547926	0.8066450330863629	0	0	0	-13.03274978624942	0	89.20920693827362	0.8066450330863629	0	0
